<svg width="17" height="16" viewBox="0 0 17 16" fill="none" xmlns="http://www.w3.org/2000/svg">
<path d="M16.169 8C16.169 10.1217 15.3262 12.1566 13.8259 13.6569C12.3256 15.1571 10.2908 16 8.16902 16C6.04729 16 4.01246 15.1571 2.51217 13.6569C1.01188 12.1566 0.169022 10.1217 0.169022 8C0.169022 5.87827 1.01188 3.84344 2.51217 2.34315C4.01246 0.842855 6.04729 0 8.16902 0C10.2908 0 12.3256 0.842855 13.8259 2.34315C15.3262 3.84344 16.169 5.87827 16.169 8V8ZM8.16902 3.5C8.16902 3.36739 8.11634 3.24021 8.02257 3.14645C7.92881 3.05268 7.80163 3 7.66902 3C7.53641 3 7.40924 3.05268 7.31547 3.14645C7.2217 3.24021 7.16902 3.36739 7.16902 3.5V9C7.16905 9.08813 7.19237 9.17469 7.23663 9.25091C7.28088 9.32712 7.34449 9.39029 7.42102 9.434L10.921 11.434C11.0359 11.4961 11.1705 11.5108 11.296 11.4749C11.4215 11.4391 11.5281 11.3556 11.5929 11.2422C11.6576 11.1288 11.6755 10.9946 11.6427 10.8683C11.6098 10.7419 11.5288 10.6334 11.417 10.566L8.16902 8.71V3.5Z" fill="black"/>
</svg>
