<svg width="34" height="34" viewBox="0 0 34 34" fill="none" xmlns="http://www.w3.org/2000/svg">
<path d="M17.0001 33.6669C13.7023 33.6688 10.4781 32.6924 7.73544 30.8612C4.99282 29.03 2.8551 26.4263 1.59284 23.3796C0.330572 20.333 0.000499897 16.9804 0.644397 13.746C1.28829 10.5117 2.87721 7.54115 5.21006 5.21024C8.33696 2.08334 12.578 0.32666 17.0001 0.32666C21.4222 0.32666 25.6632 2.08334 28.7901 5.21024C31.917 8.33714 33.6736 12.5781 33.6736 17.0002C33.6736 21.4223 31.917 25.6633 28.7901 28.7902C27.245 30.3423 25.4073 31.5725 23.3836 32.4096C21.3598 33.2467 19.1901 33.674 17.0001 33.6669V33.6669ZM3.66673 17.2869C3.70461 20.8105 5.13581 24.1758 7.64752 26.6474C10.1592 29.1189 13.5472 30.4957 17.071 30.4767C20.5947 30.4578 23.9677 29.0447 26.4527 26.5463C28.9377 24.0479 30.3326 20.6674 30.3326 17.1436C30.3326 13.6198 28.9377 10.2392 26.4527 7.74085C23.9677 5.24246 20.5947 3.82937 17.071 3.81043C13.5472 3.79149 10.1592 5.16824 7.64752 7.63977C5.13581 10.1113 3.70461 13.4766 3.66673 17.0002V17.2869ZM12.6817 23.6669L10.3317 21.3169L14.6501 17.0002L10.3334 12.6836L12.6834 10.3336L17.0001 14.6502L21.3167 10.3336L23.6667 12.6836L19.3501 17.0002L23.6667 21.3169L21.3201 23.6669L17.0001 19.3502L12.6834 23.6669H12.6817Z" fill="white"/>
</svg>
